<?xml version="1.0" standalone="no"?>
<!DOCTYPE svg PUBLIC "-//W3C//DTD SVG 20010904//EN"
 "http://www.w3.org/TR/2001/REC-SVG-20010904/DTD/svg10.dtd">
<svg version="1.0" xmlns="http://www.w3.org/2000/svg"
 width="2560.000000pt" height="1440.000000pt" viewBox="0 0 2560.000000 1440.000000"
 preserveAspectRatio="xMidYMid meet">

<g transform="translate(0.000000,1440.000000) scale(0.100000,-0.100000)"
fill="#000000" stroke="none">
<path d="M7940 10288 c0 -4 -9 -8 -19 -8 -11 0 -21 -3 -23 -7 -5 -12 -86 -73
-96 -73 -5 0 -17 -9 -27 -20 -10 -11 -23 -20 -30 -20 -7 0 -20 -9 -30 -20 -10
-11 -24 -20 -31 -20 -8 0 -27 -13 -42 -30 -16 -16 -34 -30 -41 -30 -6 0 -25
-16 -42 -35 -17 -19 -35 -33 -39 -30 -4 3 -28 -14 -53 -38 -91 -85 -155 -137
-172 -137 -9 0 -14 -4 -11 -9 4 -5 1 -11 -5 -13 -41 -14 -554 -533 -600 -607
-9 -14 -35 -43 -57 -63 -23 -21 -42 -44 -42 -51 0 -7 -18 -30 -40 -51 -22 -21
-40 -43 -40 -50 0 -7 -13 -25 -30 -41 -16 -16 -30 -34 -30 -41 0 -6 -13 -22
-30 -35 -16 -13 -30 -31 -30 -40 0 -8 -13 -28 -30 -44 -16 -16 -30 -35 -30
-42 0 -7 -9 -18 -20 -25 -11 -7 -20 -20 -20 -30 0 -9 -10 -24 -22 -33 -16 -12
-19 -19 -10 -22 6 -3 12 -10 12 -16 0 -7 14 -28 30 -47 16 -19 30 -39 30 -43
0 -5 14 -20 30 -34 17 -13 30 -31 30 -39 0 -8 5 -14 10 -14 6 0 10 -5 10 -11
0 -6 14 -22 30 -36 17 -13 30 -31 30 -39 0 -9 27 -42 60 -74 33 -32 60 -63 60
-68 0 -6 45 -55 100 -111 55 -55 100 -102 100 -106 0 -3 -150 -5 -334 -5 -213
0 -337 -4 -341 -10 -3 -5 -17 -10 -30 -10 -13 0 -27 -4 -30 -10 -3 -5 -19 -10
-36 -10 -16 0 -37 -4 -47 -9 -37 -19 -68 -31 -87 -35 -11 -1 -31 -8 -45 -13
-14 -6 -31 -8 -37 -6 -7 3 -13 0 -13 -6 0 -6 -13 -11 -30 -11 -16 0 -30 -4
-30 -10 0 -5 -13 -10 -30 -10 -16 0 -30 -4 -30 -10 0 -5 -13 -10 -30 -10 -16
0 -30 -4 -30 -10 0 -5 -13 -10 -30 -10 -16 0 -30 -4 -30 -10 0 -5 -11 -10 -25
-10 -14 0 -25 -4 -25 -10 0 -7 790 -10 2350 -10 1560 0 2350 3 2350 10 0 6 -7
10 -15 10 -8 0 -15 5 -15 10 0 6 -13 10 -29 10 -17 0 -33 5 -36 10 -4 6 -10 8
-15 5 -8 -5 -153 38 -182 55 -10 6 -27 10 -38 10 -11 0 -20 5 -20 10 0 6 -13
10 -30 10 -16 0 -30 5 -30 10 0 6 -13 10 -30 10 -16 0 -30 5 -30 10 0 6 -11
10 -23 10 -13 0 -50 9 -81 20 -54 18 -86 20 -437 20 -208 1 -379 3 -379 7 0 9
73 73 83 73 5 0 22 14 37 30 15 17 33 30 39 30 5 0 29 18 51 40 22 22 46 40
51 40 6 0 24 14 39 30 15 17 33 30 39 30 6 0 11 4 11 9 0 5 16 16 35 25 19 9
46 28 60 41 13 14 29 25 36 25 6 0 24 14 39 30 15 17 31 30 34 30 4 0 16 8 27
18 10 11 32 25 47 33 15 8 34 22 43 31 9 10 23 18 30 18 8 0 21 9 29 20 8 11
21 20 30 20 9 0 22 9 30 20 9 12 26 20 43 20 l28 0 -29 28 c-16 16 -43 34 -60
41 -18 8 -32 17 -32 21 0 4 -16 15 -36 25 -19 9 -38 23 -41 31 -3 8 -14 14
-24 14 -10 0 -24 9 -31 20 -7 11 -20 20 -29 20 -9 0 -27 13 -40 30 -13 16 -31
30 -40 30 -9 0 -27 13 -40 30 -13 16 -31 30 -39 30 -8 0 -29 14 -47 30 -18 17
-36 30 -40 30 -5 0 -30 23 -56 50 -26 28 -52 50 -57 50 -6 0 -44 34 -86 75
-42 41 -81 75 -86 75 -13 0 -248 237 -248 251 0 5 -36 45 -80 89 -44 44 -80
84 -80 90 0 6 -22 33 -50 60 -27 27 -50 56 -50 65 0 9 -4 14 -8 11 -5 -3 -15
6 -22 19 -7 14 -17 25 -22 25 -4 0 -8 7 -8 16 0 9 -13 29 -30 44 -16 15 -30
33 -30 40 0 7 -13 25 -30 40 -16 15 -30 34 -30 42 0 7 -9 20 -20 28 -11 8 -20
21 -20 30 0 9 -9 22 -20 30 -11 8 -20 21 -20 30 0 9 -9 22 -20 30 -11 8 -20
22 -20 32 0 10 -7 18 -16 18 -8 0 -13 4 -10 9 3 5 -1 11 -9 15 -9 3 -12 12 -8
22 4 12 3 15 -5 10 -7 -4 -12 -1 -12 6 0 8 -9 14 -20 14 -11 0 -20 -4 -20 -8z
m-1065 -2390 c14 -16 22 -33 19 -42 -5 -14 -60 -16 -470 -16 -255 0 -464 3
-464 6 0 14 31 34 54 34 14 0 26 5 26 10 0 6 13 10 29 10 16 0 31 6 35 15 5
13 55 15 376 12 l370 -2 25 -27z m2752 4 c23 -12 46 -22 51 -22 11 0 72 -30
72 -35 0 -3 -240 -4 -532 -4 -464 -1 -536 1 -553 15 -18 14 -19 16 -3 25 9 5
24 16 31 24 18 17 100 20 562 19 320 0 331 -1 372 -22z"/>
<path d="M10736 9724 c-8 -20 -8 -2548 0 -2568 5 -14 59 -16 505 -16 l499 0 0
1300 0 1300 -499 0 c-446 0 -500 -2 -505 -16z"/>
<path d="M12227 9733 c-4 -3 -7 -588 -7 -1300 l0 -1293 500 0 500 0 0 760 c0
690 1 760 16 760 9 0 29 -13 44 -30 15 -16 35 -30 43 -30 8 0 27 -13 40 -30
14 -16 32 -30 40 -30 8 0 31 -18 51 -40 20 -22 42 -40 50 -40 7 0 24 -13 37
-30 13 -16 31 -30 40 -30 9 0 27 -13 40 -30 13 -16 31 -30 40 -30 9 0 27 -13
40 -30 13 -16 31 -30 40 -30 9 0 32 -18 52 -40 19 -22 41 -40 50 -40 8 0 25
-13 38 -30 13 -16 31 -30 40 -30 9 0 27 -13 40 -30 13 -16 31 -30 40 -30 9 0
27 -13 40 -30 13 -16 31 -30 40 -30 9 0 32 -18 52 -40 19 -22 41 -40 50 -40 8
0 25 -13 38 -30 13 -16 31 -30 41 -30 9 0 28 -13 41 -30 14 -16 32 -30 40 -30
9 0 27 -13 40 -30 14 -16 31 -30 37 -30 18 0 70 -47 62 -55 -4 -5 -2 -5 5 -1
7 4 31 -12 58 -39 25 -25 52 -45 59 -45 8 0 24 -13 37 -30 13 -16 31 -30 40
-30 9 0 27 -13 40 -30 13 -16 31 -30 40 -30 9 0 27 -13 40 -30 13 -16 31 -30
40 -30 9 0 32 -18 52 -40 19 -22 42 -40 50 -40 8 0 27 -13 40 -30 14 -16 32
-30 40 -30 9 0 27 -13 40 -30 14 -16 32 -30 40 -30 9 0 27 -13 40 -30 14 -16
33 -30 41 -30 9 0 21 -9 28 -20 13 -20 24 -20 520 -20 l508 0 0 1300 0 1300
-497 -2 -498 -3 -3 -757 c-1 -523 -5 -758 -13 -758 -5 0 -7 -5 -4 -11 4 -6 -2
-5 -13 2 -12 7 -18 17 -15 23 3 5 1 6 -5 3 -11 -8 -98 61 -95 74 2 5 -3 6 -10
4 -14 -5 -67 38 -67 55 0 5 -8 10 -19 10 -10 0 -29 13 -42 30 -13 16 -31 30
-41 30 -9 0 -28 14 -41 30 -14 17 -32 30 -40 30 -8 0 -25 13 -38 30 -13 16
-31 30 -40 30 -9 0 -32 18 -52 40 -19 22 -40 40 -46 40 -15 0 -131 90 -138
106 -3 8 -12 14 -20 14 -19 0 -74 46 -66 54 4 3 -3 6 -15 6 -12 0 -22 3 -22 8
0 4 -14 16 -30 27 -16 11 -30 26 -30 33 0 7 -6 12 -12 10 -17 -4 -79 43 -72
54 3 5 1 7 -5 6 -15 -4 -71 35 -71 50 0 6 -9 12 -19 12 -11 0 -31 14 -44 30
-14 17 -32 30 -40 30 -9 0 -27 14 -40 30 -14 17 -31 30 -37 30 -14 0 -64 38
-127 98 -25 23 -51 42 -58 42 -7 0 -25 14 -38 30 -14 17 -32 30 -40 30 -9 0
-27 14 -40 30 -14 17 -32 30 -40 30 -8 0 -30 18 -50 40 -19 22 -39 39 -44 38
-12 -4 -63 37 -63 51 0 6 -9 11 -19 11 -11 0 -31 14 -44 30 -14 17 -32 30 -40
30 -9 0 -27 14 -40 30 -14 17 -32 30 -40 30 -9 0 -27 14 -40 30 -14 17 -33 30
-41 30 -9 0 -16 5 -16 10 0 11 -982 15 -993 3z"/>
<path d="M16720 8440 l0 -1300 1723 0 c1115 0 1717 4 1707 10 -10 6 -11 10 -2
10 9 0 12 53 12 230 l0 230 -1220 0 -1220 0 0 290 0 290 1220 0 1220 0 -2 238
-3 237 -1217 3 -1218 2 0 290 0 290 1219 0 1220 0 1 240 1 240 -1721 0 -1720
0 0 -1300z"/>
<path d="M7106 7706 c3 -8 -2 -16 -13 -19 -14 -4 -14 -5 5 -6 12 0 22 -5 22
-11 0 -5 7 -10 17 -10 9 0 33 -18 54 -40 21 -22 45 -40 52 -40 8 0 25 -13 38
-30 13 -16 31 -30 40 -30 9 0 27 -13 40 -30 13 -16 32 -30 41 -30 10 0 23 -9
30 -20 7 -11 20 -20 29 -20 9 0 27 -13 40 -30 13 -16 30 -30 37 -30 15 0 75
-39 80 -52 2 -4 12 -8 23 -8 10 0 24 -9 31 -20 7 -11 18 -20 24 -20 20 0 75
-32 81 -46 3 -8 14 -14 24 -14 10 0 19 -4 19 -10 0 -5 9 -10 20 -10 13 0 20
-7 20 -19 0 -26 32 2 257 227 95 94 177 172 182 172 13 0 131 117 131 130 0 7
-222 10 -655 10 -430 0 -655 3 -655 10 0 6 -4 10 -10 10 -5 0 -7 -6 -4 -14z"/>
<path d="M8447 7700 c-3 -11 -1 -20 4 -20 5 0 9 9 9 20 0 11 -2 20 -4 20 -2 0
-6 -9 -9 -20z"/>
<path d="M5448 6550 c-1 -5 -2 -163 0 -350 l3 -340 104 0 105 0 0 350 0 350
-104 0 c-60 0 -106 -4 -108 -10z"/>
<path d="M7512 6539 c-11 -28 -5 -93 8 -97 5 -2 8 -8 4 -13 -7 -11 146 -12
164 0 9 5 12 26 10 67 l-3 59 -88 3 c-81 3 -88 1 -95 -19z"/>
<path d="M10348 6553 c6 -2 10 -8 8 -12 -4 -6 -8 -622 -4 -663 1 -16 14 -18
105 -18 l104 0 -6 185 c-3 105 -1 185 4 185 15 0 33 -29 25 -41 -4 -7 -3 -9 4
-5 11 6 38 -31 34 -47 -1 -4 11 -19 28 -33 16 -14 30 -33 30 -42 0 -10 9 -23
20 -30 11 -7 20 -20 20 -30 0 -9 9 -23 20 -30 11 -7 20 -20 20 -30 0 -9 9 -23
20 -30 11 -7 20 -21 20 -32 0 -20 5 -21 108 -18 l107 3 3 348 2 347 -94 0
c-52 0 -97 -4 -100 -8 -3 -5 -6 -92 -6 -193 l-2 -184 -29 33 c-16 18 -29 41
-29 52 0 11 -5 19 -12 18 -7 -2 -17 12 -23 30 -6 18 -14 30 -18 26 -3 -4 -12
6 -19 22 -7 15 -25 42 -40 58 -16 17 -28 38 -28 48 0 10 -4 18 -10 18 -5 0
-22 18 -36 40 l-27 40 -106 -1 c-58 0 -100 -3 -93 -6z"/>
<path d="M12476 6545 c-10 -28 -6 -89 8 -108 12 -15 26 -17 92 -15 l79 3 0 65
0 65 -86 3 c-72 2 -88 0 -93 -13z"/>
<path d="M14762 6213 l3 -348 92 -3 c89 -3 93 -2 98 20 3 13 4 169 3 348 l-3
325 -98 3 -97 3 2 -348z"/>
<path d="M15427 6554 c-9 -9 -9 -656 -1 -678 5 -14 41 -16 300 -16 l294 0 0
74 c0 58 -3 75 -16 80 -9 3 -94 6 -190 6 l-174 0 0 70 0 70 168 2 167 3 0 65
0 65 -167 3 -168 2 0 50 0 50 53 2 52 1 -50 7 c-30 4 23 7 128 6 l178 -1 -3
70 -3 70 -281 3 c-154 1 -283 -1 -287 -4z"/>
<path d="M16133 6546 c-4 -8 -7 -166 -5 -350 l3 -336 94 0 95 0 -2 348 -3 347
-87 3 c-68 2 -88 0 -95 -12z"/>
<path d="M17957 6548 c-2 -8 -39 -31 -81 -51 -76 -38 -76 -38 -76 -78 0 -36
-3 -41 -32 -52 -18 -6 -35 -11 -38 -10 -3 1 -6 -30 -6 -69 l-1 -70 33 5 c19 3
36 3 38 -1 2 -4 6 -73 8 -154 1 -80 6 -144 11 -141 4 2 7 -1 7 -7 0 -22 49
-60 77 -60 19 0 24 -3 15 -9 -8 -5 15 -8 57 -9 41 -1 71 3 71 8 0 6 13 10 28
10 27 0 28 2 30 58 2 48 -1 59 -18 70 -12 7 -20 8 -20 2 0 -5 -9 -10 -20 -10
-11 0 -20 4 -20 10 0 5 -6 7 -14 4 -16 -6 -30 114 -20 185 l6 46 54 -3 54 -4
0 71 0 71 -54 0 c-40 0 -55 4 -60 16 -10 25 -7 82 4 89 6 3 9 23 9 43 l-2 37
-7 -40 -7 -40 -2 35 c-2 42 -15 69 -24 48z"/>
<path d="M19963 6213 l2 -348 98 -3 97 -3 -2 348 -3 348 -97 3 -96 3 1 -348z"/>
<path d="M7280 6543 c-8 -3 -52 -23 -98 -46 l-83 -42 3 -38 c3 -43 -11 -57
-54 -57 -16 0 -28 -5 -28 -11 0 -5 4 -8 8 -5 4 2 5 -19 2 -48 -6 -59 5 -79 43
-74 21 3 22 0 28 -122 4 -69 10 -138 14 -155 9 -36 39 -70 79 -90 33 -17 171
-21 146 -5 -11 7 -2 10 33 10 26 0 47 5 47 10 0 6 -5 10 -11 10 -5 0 -9 8 -8
18 1 9 1 34 0 56 l-1 38 -35 -6 c-57 -11 -65 5 -65 128 l0 106 50 0 50 0 0 69
0 70 -47 3 -48 3 -5 91 c-4 74 -8 90 -20 87z"/>
<path d="M7970 6513 c-41 -21 -76 -41 -78 -45 -2 -5 -11 -8 -19 -8 -12 0 -15
-8 -10 -39 5 -44 -6 -61 -40 -61 -22 0 -23 -4 -23 -70 l0 -70 35 0 35 0 0
-122 c0 -135 11 -190 40 -211 11 -8 17 -17 13 -20 -3 -4 8 -7 25 -7 17 0 34
-4 37 -10 3 -5 36 -10 73 -9 47 0 61 3 47 9 -15 6 -8 9 28 9 l47 1 -1 38 -2
37 -7 -35 c-6 -30 -8 -26 -9 27 l-1 62 -34 -6 c-57 -9 -66 8 -66 131 l0 106
50 0 50 0 0 69 0 70 -47 3 -48 3 -3 93 c-1 50 -6 92 -10 92 -4 0 -41 -17 -82
-37z"/>
<path d="M9115 6541 c-7 -13 -64 -41 -82 -41 -7 0 -13 -3 -13 -8 0 -4 -13 -13
-30 -20 -26 -12 -30 -19 -30 -52 0 -42 -14 -59 -54 -62 -26 -2 -27 -3 -24 -68
l3 -65 33 -1 c18 -1 34 -3 36 -5 2 -2 6 -70 7 -151 2 -80 7 -144 12 -141 4 2
7 -1 7 -7 0 -22 49 -60 77 -60 22 0 25 -2 13 -10 -10 -7 7 -10 58 -10 41 0 72
4 72 10 0 6 14 10 30 10 30 0 30 1 30 53 0 41 -5 58 -20 72 -11 10 -20 13 -20
7 0 -17 -35 -15 -49 2 -7 9 -13 57 -14 123 l-2 108 53 -3 52 -4 0 71 0 71 -32
0 c-72 0 -75 3 -70 86 2 49 -1 81 -9 90 -13 16 -25 18 -34 5z"/>
<path d="M15938 6403 c6 -2 18 -2 25 0 6 3 1 5 -13 5 -14 0 -19 -2 -12 -5z"/>
<path d="M6079 6356 c-19 -10 -41 -27 -50 -37 -25 -29 -47 -24 -51 13 l-3 32
-70 -3 c-107 -3 -109 -4 -101 -65 3 -28 6 -138 6 -243 l0 -193 95 0 95 0 0
150 c0 93 4 150 10 150 6 0 10 7 10 16 0 42 74 60 109 27 16 -16 19 -39 23
-175 2 -104 0 -159 -7 -162 -5 -2 36 -5 93 -5 l102 -1 0 210 c0 133 -4 210
-10 210 -5 0 -10 7 -10 15 0 9 -11 27 -25 40 -13 14 -31 25 -40 25 -8 0 -15 3
-15 8 0 16 -128 7 -161 -12z"/>
<path d="M6615 6370 c-11 -5 -32 -9 -47 -9 -16 -1 -28 -5 -28 -11 0 -5 -7 -10
-16 -10 -42 0 -84 -98 -65 -152 6 -17 8 -35 4 -41 -3 -5 -2 -7 4 -4 6 4 21 -5
33 -18 13 -14 29 -25 37 -25 7 0 13 -4 13 -10 0 -5 11 -10 25 -10 14 0 25 -4
25 -10 0 -6 28 -10 63 -10 41 0 57 -3 47 -9 -10 -7 -1 -11 30 -13 45 -3 45 -3
42 -37 -1 -19 -4 -36 -6 -38 -1 -2 -24 -6 -50 -9 -45 -7 -48 -5 -81 30 -31 34
-37 37 -67 30 -44 -11 -47 -12 -94 -13 -39 -1 -42 -3 -40 -28 1 -31 56 -93 81
-93 8 0 15 -4 15 -10 0 -5 23 -10 50 -10 28 0 50 -4 50 -9 0 -14 102 -12 119
2 12 9 13 9 7 0 -4 -7 -3 -13 3 -13 5 0 11 5 13 10 2 6 20 11 41 12 20 1 37 5
37 10 0 4 7 8 15 8 20 0 86 66 84 83 -3 28 2 48 11 42 7 -4 7 3 0 20 -6 15
-10 36 -10 48 0 14 -13 31 -35 46 -19 13 -32 28 -28 34 4 6 0 8 -8 5 -8 -3
-25 -1 -39 5 -14 5 -43 12 -65 14 -22 1 -41 8 -43 13 -2 6 -24 10 -49 10 -48
0 -88 25 -63 40 7 4 10 13 6 19 -5 7 -1 9 8 5 9 -3 16 -1 16 5 0 6 9 11 20 11
11 0 20 -4 20 -10 0 -5 8 -10 18 -10 14 0 15 2 2 10 -8 5 -11 10 -6 10 14 0
66 -48 56 -52 -6 -2 12 -3 39 -3 27 0 47 3 44 8 -2 4 16 7 41 7 39 0 46 3 46
20 0 11 -4 20 -10 20 -5 0 -10 9 -10 21 0 11 -4 17 -10 14 -5 -3 -10 1 -10 9
0 9 -9 16 -20 16 -11 0 -20 5 -20 10 0 6 -9 10 -20 10 -11 0 -20 3 -20 8 0 11
-181 13 -205 2z"/>
<path d="M9535 6372 c14 -3 4 -9 -32 -21 -52 -16 -143 -89 -143 -115 0 -7 -3
-16 -7 -20 -12 -12 -15 -38 -15 -126 0 -52 4 -86 11 -88 6 -2 11 -12 11 -23 0
-10 6 -19 13 -19 6 -1 26 -19 42 -40 17 -22 35 -38 41 -36 5 2 21 -2 35 -10
13 -7 39 -13 57 -14 18 0 41 -5 51 -12 11 -7 26 -8 37 -3 21 10 33 12 86 17
21 1 38 6 38 11 0 4 7 7 15 7 20 0 105 85 105 104 0 8 5 16 11 18 6 2 10 39 9
98 -1 52 -2 106 -2 119 0 14 -3 19 -7 12 -8 -12 -31 28 -31 54 0 8 -7 15 -16
15 -8 0 -12 4 -9 10 3 5 0 7 -8 4 -8 -3 -19 2 -26 10 -21 25 -100 44 -196 48
-49 2 -81 2 -70 0z m157 -164 c19 -27 23 -46 23 -106 0 -68 -2 -76 -28 -98
-38 -33 -95 -33 -130 0 -18 17 -25 31 -20 42 4 11 2 15 -4 11 -17 -10 -21 13
-13 70 9 71 47 111 107 112 36 1 45 -3 65 -31z"/>
<path d="M11310 6368 c0 -5 -9 -8 -20 -8 -49 0 -114 -55 -130 -108 l-9 -32 47
-1 c26 -1 53 0 61 1 8 1 17 -4 21 -10 6 -9 13 -9 30 0 15 8 20 8 16 1 -4 -6
-2 -11 3 -11 6 0 11 9 11 20 0 13 7 20 20 20 11 0 20 5 20 10 0 16 96 12 110
-5 17 -20 8 -51 -14 -47 -11 2 -15 -1 -11 -7 4 -7 -7 -11 -29 -11 -20 0 -36
-3 -36 -8 0 -7 -92 -32 -120 -32 -27 0 -106 -44 -126 -70 -13 -18 -19 -41 -18
-81 1 -51 4 -60 37 -93 20 -20 40 -36 44 -35 5 1 22 1 38 0 23 -1 27 -3 15
-11 -12 -8 -10 -10 10 -10 14 0 39 4 57 9 22 7 33 6 37 -2 3 -9 5 -8 5 1 1 6
12 12 25 12 14 0 28 5 31 10 3 6 14 10 25 10 10 0 21 7 24 15 4 12 10 14 25 5
12 -6 18 -16 15 -25 -5 -13 9 -15 86 -15 l92 0 -7 33 c-4 17 -10 108 -12 202
-2 93 -8 174 -13 179 -6 6 -10 18 -10 28 0 10 -7 18 -15 18 -8 0 -15 4 -15 9
0 4 -21 14 -46 21 -25 7 -41 16 -36 19 6 3 -46 6 -114 6 -68 0 -124 -3 -124
-7z m188 -311 c2 -21 -1 -37 -7 -37 -6 0 -11 -8 -11 -18 0 -24 -50 -44 -101
-40 -52 4 -69 25 -49 62 7 14 15 24 18 21 2 -2 11 3 19 11 9 8 22 13 30 10 8
-3 11 -1 8 4 -4 6 9 10 30 10 24 0 34 4 29 11 -4 7 1 10 12 7 14 -2 20 -13 22
-41z"/>
<path d="M11996 6369 c2 -4 -14 -9 -35 -13 -41 -6 -125 -72 -136 -107 -4 -10
-10 -17 -14 -15 -4 3 -8 -7 -9 -22 0 -15 -4 -57 -9 -94 -6 -42 -6 -71 0 -77 5
-5 10 -21 10 -35 0 -14 3 -23 7 -21 11 7 22 -24 13 -37 -3 -7 -1 -8 5 -4 7 4
12 1 12 -8 0 -9 7 -16 16 -16 8 0 12 -4 9 -10 -3 -5 3 -10 14 -10 12 0 21 -4
21 -10 0 -5 9 -10 19 -10 11 0 23 -4 26 -10 3 -5 24 -10 45 -10 21 0 41 -4 45
-9 8 -14 88 -11 98 3 6 8 10 7 14 -3 4 -9 7 -10 12 -2 4 6 24 12 44 13 20 1
37 5 37 10 0 4 7 8 15 8 9 0 31 16 50 35 19 19 35 41 35 50 0 8 5 15 10 15 6
0 10 13 10 29 0 28 -1 28 -74 34 -40 4 -80 9 -90 13 -9 3 -16 1 -16 -6 0 -6 6
-8 13 -4 6 4 -4 -9 -22 -29 -31 -33 -41 -37 -84 -37 -40 0 -53 5 -78 29 -27
27 -29 35 -29 100 0 43 4 71 11 71 5 0 7 5 4 10 -3 6 -1 10 5 10 13 0 40 25
40 37 0 4 21 7 46 7 39 -1 52 -7 74 -33 28 -31 72 -42 85 -21 3 6 31 10 61 10
47 0 54 2 54 20 0 11 -4 20 -10 20 -5 0 -10 6 -10 14 0 29 -69 84 -120 96 -28
7 -50 15 -50 18 0 4 -40 7 -89 7 -49 0 -87 -3 -85 -6z"/>
<path d="M12975 6370 c16 -5 13 -8 -13 -13 -17 -4 -40 -4 -49 0 -10 3 -15 3
-12 -1 4 -4 -15 -28 -42 -53 -27 -26 -56 -60 -64 -77 -18 -39 -35 -155 -23
-162 4 -3 8 -18 8 -35 0 -16 5 -29 10 -29 6 0 10 -7 10 -15 0 -21 87 -105 110
-105 10 0 22 -4 25 -10 3 -5 24 -10 46 -10 21 0 39 -4 39 -10 0 -5 16 -10 35
-10 19 0 35 4 35 8 0 5 15 10 33 11 59 3 72 6 80 19 5 7 13 10 18 6 10 -6 59
43 59 59 0 5 5 5 10 2 6 -3 10 1 10 10 0 9 5 13 10 10 6 -3 10 3 10 14 0 12 4
21 8 21 9 0 11 18 11 130 1 47 -4 86 -9 88 -6 2 -10 10 -10 18 0 17 -56 76
-89 93 -12 7 -18 17 -15 23 4 7 3 8 -5 4 -6 -4 -26 -3 -44 3 -35 11 -222 22
-192 11z m142 -147 c4 -10 13 -22 20 -26 7 -5 11 -12 8 -17 -3 -5 -1 -11 5
-15 14 -9 13 -105 -1 -105 -6 0 -9 -6 -6 -14 10 -26 -38 -66 -78 -66 -43 0
-78 17 -69 32 4 7 3 8 -4 4 -18 -11 -32 29 -32 94 0 65 14 105 32 94 7 -5 9
-2 5 9 -4 11 -2 14 9 10 7 -3 14 0 14 6 0 6 19 11 45 11 34 0 47 -4 52 -17z"/>
<path d="M13750 6370 c0 -3 -20 -13 -45 -23 -25 -11 -45 -25 -45 -33 0 -8 -9
-14 -20 -14 -16 0 -20 7 -20 30 0 27 -3 30 -32 32 -69 3 -123 -3 -130 -15 -4
-7 -8 -119 -8 -249 l0 -238 96 0 97 0 -5 143 c-4 112 -2 149 9 174 9 18 19 30
24 27 5 -3 9 0 9 5 0 18 70 13 88 -6 14 -14 18 -43 20 -180 l3 -163 95 0 95 0
-1 210 c-1 127 -5 208 -11 205 -5 -4 -9 3 -9 15 0 20 -20 48 -37 53 -4 1 -7 6
-5 10 1 5 -2 6 -7 3 -11 -7 -42 4 -37 13 2 3 -25 6 -60 6 -35 0 -64 -2 -64 -5z"/>
<path d="M14251 6370 c5 -3 -10 -11 -34 -17 -54 -15 -117 -72 -117 -106 0 -23
4 -25 63 -30 34 -3 75 -9 91 -13 24 -6 28 -4 23 8 -7 19 11 38 29 31 8 -3 14
0 14 6 0 7 20 11 50 11 28 0 50 -4 50 -10 0 -5 6 -9 13 -7 15 3 10 -31 -8 -49
-7 -8 -25 -14 -39 -14 -14 0 -26 -4 -26 -9 0 -5 -19 -11 -42 -15 -82 -10 -118
-18 -124 -27 -3 -5 -13 -9 -22 -9 -23 0 -72 -43 -72 -63 0 -9 -5 -19 -10 -22
-6 -4 -9 -31 -8 -60 1 -30 5 -50 9 -44 3 6 13 -5 22 -23 9 -18 17 -29 17 -24
0 4 11 1 25 -8 13 -9 39 -16 57 -17 28 0 30 -2 13 -9 -14 -6 -4 -9 38 -9 32
-1 57 3 57 9 0 6 13 10 29 10 16 0 31 3 33 8 3 7 62 42 72 42 3 0 6 -5 6 -11
0 -29 30 -39 114 -39 54 0 86 4 86 11 0 5 -4 7 -10 4 -5 -3 -10 -2 -10 4 0 5
6 12 13 14 10 4 10 6 0 6 -10 1 -13 44 -13 181 0 113 -4 180 -10 180 -5 0 -10
6 -10 14 0 18 -66 84 -82 83 -37 -1 -62 4 -52 11 7 4 -46 7 -116 7 -71 0 -124
-2 -119 -5z m191 -320 c-4 -53 -38 -90 -82 -90 -22 0 -29 -4 -24 -12 4 -7 -8
-3 -27 8 -28 17 -33 25 -31 49 5 36 24 55 56 55 14 0 26 5 26 10 0 6 11 10 24
10 14 0 28 5 31 11 15 23 30 0 27 -41z m-135 -196 c-3 -3 -12 -4 -19 -1 -8 3
-5 6 6 6 11 1 17 -2 13 -5z"/>
<path d="M16630 6369 c0 -4 -56 -25 -90 -32 -3 -1 -21 -19 -41 -41 -56 -60
-93 -219 -63 -261 8 -11 12 -27 9 -36 -3 -10 1 -19 11 -23 10 -4 14 -12 10
-23 -4 -10 -4 -15 -1 -11 8 8 61 -42 57 -54 -1 -5 3 -8 10 -5 7 2 25 -2 41
-10 15 -7 43 -14 62 -15 19 -1 35 -5 35 -10 0 -10 81 -8 95 2 6 4 17 8 25 8
68 3 90 7 94 18 3 8 12 11 21 8 9 -4 15 -3 13 2 -2 5 0 10 5 11 18 6 57 54 57
71 0 15 -10 21 -46 26 -78 10 -131 7 -144 -9 -7 -8 -16 -12 -21 -9 -5 3 -9 0
-9 -5 0 -6 -18 -11 -40 -11 -22 0 -40 5 -40 10 0 6 -6 9 -12 8 -7 -2 -12 3
-10 10 1 8 -2 11 -7 7 -11 -6 -31 25 -31 49 0 14 25 16 193 17 112 1 182 4
167 9 l-25 8 27 1 c25 1 52 21 29 21 -7 0 -11 24 -11 60 0 33 -3 60 -7 60 -9
0 -33 49 -33 67 0 7 -6 12 -12 11 -7 -2 -11 4 -10 12 2 8 1 12 -3 8 -4 -3 -27
4 -52 17 -25 14 -59 27 -76 29 -53 9 -177 12 -177 5z m130 -113 c0 -7 9 -16
20 -19 14 -3 20 -14 20 -31 0 -14 5 -26 11 -26 5 0 8 -4 5 -9 -7 -11 -158 -25
-184 -17 -14 5 -18 13 -15 26 3 11 9 20 14 20 5 0 6 6 3 13 -2 7 5 22 17 33
13 10 19 13 15 7 -4 -7 -2 -13 3 -13 6 0 11 4 11 9 0 6 15 12 33 14 17 2 35 5
40 5 4 1 7 -4 7 -12z m178 -183 c-10 -2 -26 -2 -35 0 -10 3 -2 5 17 5 19 0 27
-2 18 -5z"/>
<path d="M17370 6370 c-126 -8 -172 -24 -218 -74 -20 -23 -40 -40 -44 -39 -4
2 -7 -5 -6 -15 1 -9 0 -26 -1 -37 -2 -18 -3 -18 -9 -3 -4 10 -7 -32 -7 -91 0
-60 3 -104 7 -98 7 11 12 -7 11 -40 0 -7 3 -11 7 -10 9 3 75 -66 72 -75 -1 -5
10 -8 24 -8 14 0 23 -4 20 -9 -3 -5 0 -9 7 -8 46 1 97 -4 93 -11 -2 -4 27 -8
65 -8 38 0 69 3 69 8 0 4 14 8 30 8 17 0 30 5 30 10 0 6 9 10 20 10 11 0 20 5
20 10 0 6 7 10 16 10 20 0 44 24 44 44 0 8 8 21 18 28 10 7 17 25 17 39 0 25
-3 27 -65 32 -36 4 -76 9 -90 12 -14 3 -20 3 -13 -1 7 -3 -2 -18 -25 -40 -31
-29 -43 -34 -84 -34 -34 0 -54 6 -73 23 -23 20 -26 29 -27 92 0 95 0 97 14 89
7 -5 9 -2 5 8 -3 10 3 24 15 35 12 10 18 12 14 6 -4 -7 -2 -13 3 -13 6 0 11 6
11 13 0 8 14 11 47 8 46 -3 73 -19 73 -41 0 -6 5 -8 10 -5 6 3 10 1 10 -5 0
-11 65 -9 77 3 3 4 26 7 49 7 24 0 46 5 50 12 4 7 3 8 -4 4 -8 -5 -12 2 -12
18 0 14 -4 26 -10 26 -5 0 -10 8 -10 18 0 9 -10 22 -22 27 -13 6 -22 16 -20
23 1 7 -3 12 -10 11 -27 -3 -39 1 -32 13 4 6 3 8 -3 5 -15 -9 -74 3 -67 14 3
5 4 8 2 7 -2 -1 -46 -4 -98 -8z m-103 -277 c-3 -10 -5 -2 -5 17 0 19 2 27 5
18 2 -10 2 -26 0 -35z"/>
<path d="M18375 6371 c14 -2 3 -9 -32 -20 -54 -17 -143 -89 -143 -116 0 -8 -4
-15 -9 -15 -5 0 -9 -10 -9 -22 -1 -13 -5 -47 -10 -75 -5 -29 -5 -53 -1 -53 5
0 9 -16 9 -35 0 -19 5 -35 10 -35 6 0 10 -7 10 -15 0 -22 86 -102 118 -109 82
-20 142 -27 187 -21 28 4 60 7 72 7 13 0 20 4 17 9 -5 8 10 13 29 10 11 -2 57
46 57 60 0 7 3 10 6 6 9 -9 34 19 34 37 0 9 4 16 9 16 6 0 9 8 9 18 -1 18 9
85 18 117 4 16 3 17 -5 5 -8 -12 -11 -8 -13 20 -1 19 -1 46 0 60 1 16 -1 20
-7 12 -5 -9 -11 -5 -19 13 -7 14 -12 32 -12 40 0 8 -7 15 -16 15 -9 0 -12 5
-8 12 4 7 3 8 -5 4 -13 -9 -64 28 -53 38 4 4 -5 5 -19 1 -16 -4 -31 -1 -40 7
-10 9 -44 13 -109 13 -52 0 -86 -1 -75 -4z m150 -156 c46 -60 46 -165 0 -211
-36 -36 -97 -33 -136 5 -26 27 -29 36 -29 98 0 65 2 70 35 100 19 17 47 33 62
36 15 2 31 5 35 6 4 0 19 -15 33 -34z"/>
<path d="M19103 6371 c2 -7 -64 -74 -68 -69 -1 2 -6 16 -12 32 -9 29 -10 29
-82 28 -40 0 -76 -4 -80 -7 -3 -4 -7 -117 -9 -251 l-4 -244 96 0 96 0 1 143
c0 88 4 134 9 122 7 -16 9 -11 9 21 1 40 20 71 35 56 4 -4 6 0 4 8 -2 12 7 14
50 12 47 -4 52 -2 52 17 0 12 5 21 10 21 6 0 10 9 10 19 0 11 5 23 10 26 16
10 11 44 -7 53 -21 11 -123 22 -120 13z"/>
<path d="M19452 6369 c5 -4 -7 -10 -29 -13 -45 -9 -123 -79 -123 -111 0 -18 9
-22 86 -32 73 -10 89 -10 101 2 8 8 11 20 7 26 -5 8 -3 9 6 4 7 -4 15 -3 19 3
7 12 92 19 109 8 16 -10 15 -44 -2 -62 -8 -8 -31 -14 -51 -14 -20 0 -34 -4
-31 -8 3 -5 -27 -15 -67 -22 -93 -16 -128 -32 -166 -75 -24 -28 -31 -45 -31
-78 0 -23 7 -51 15 -61 8 -10 13 -22 11 -25 -4 -6 26 -38 31 -33 8 7 23 1 18
-8 -3 -5 0 -7 8 -4 8 3 21 -1 28 -9 17 -16 129 -23 129 -7 0 5 14 10 30 10 17
0 30 3 30 8 0 6 72 42 86 42 3 0 2 -5 -1 -10 -3 -6 0 -17 9 -25 11 -11 38 -15
100 -15 79 0 86 2 86 20 0 11 -4 20 -10 20 -6 0 -10 63 -10 170 0 107 -4 170
-10 170 -5 0 -10 14 -10 30 0 20 -5 30 -15 30 -8 0 -19 9 -25 20 -6 12 -30 25
-55 32 -25 7 -41 15 -36 18 5 3 -49 5 -119 5 -71 0 -124 -3 -118 -6z m190
-320 c-5 -57 -31 -86 -85 -92 -59 -6 -85 12 -79 55 6 39 28 59 60 51 13 -3 22
-1 22 6 0 6 11 11 24 11 14 0 28 5 31 11 15 24 30 1 27 -42z"/>
<path d="M8343 6362 l-83 -3 0 -194 c0 -118 4 -196 10 -200 6 -3 10 -15 10
-26 0 -10 5 -19 10 -19 6 0 10 -8 10 -17 0 -13 17 -24 53 -37 66 -24 127 -32
127 -17 0 6 12 11 26 11 17 0 38 11 56 30 15 17 35 30 43 30 10 0 15 -10 15
-30 l0 -30 90 0 90 0 0 250 0 250 -84 0 c-46 0 -92 -3 -100 -6 -14 -5 -16 -27
-15 -155 1 -146 0 -149 -25 -174 -16 -16 -36 -25 -56 -25 -56 0 -60 12 -60
189 0 188 7 177 -117 173z"/>
<path d="M7509 6358 c-1 -2 -3 -114 -5 -250 l-3 -248 100 0 99 0 0 250 0 250
-95 0 c-52 0 -96 -1 -96 -2z"/>
<path d="M12476 6353 c-3 -4 -6 -116 -6 -250 l1 -243 95 0 94 0 0 250 0 250
-88 0 c-49 0 -92 -3 -96 -7z"/>
<path d="M19031 6344 c0 -11 3 -14 6 -6 3 7 2 16 -1 19 -3 4 -6 -2 -5 -13z"/>
<path d="M8173 6290 c0 -25 2 -35 4 -22 2 12 2 32 0 45 -2 12 -4 2 -4 -23z"/>
<path d="M14285 6230 c-3 -5 -1 -10 4 -10 6 0 11 5 11 10 0 6 -2 10 -4 10 -3
0 -8 -4 -11 -10z"/>
<path d="M11693 6130 c0 -47 2 -66 4 -42 2 23 2 61 0 85 -2 23 -4 4 -4 -43z"/>
</g>
</svg>
